<svg width="120" height="32" viewBox="0 0 120 32" fill="none" xmlns="http://www.w3.org/2000/svg">
<path d="M21.4926 25.4938H23.9815C24.0319 26.6297 24.6161 27.3644 25.6519 27.3644C26.7877 27.3644 27.2556 26.4458 27.2556 25.4101V18.4111H29.7445V25.3767C29.7445 28.5507 27.69 29.6028 25.6519 29.6028C23.6138 29.6028 21.4592 28.567 21.4926 25.4931V25.4938Z" fill="white"/>
<path d="M31.2148 18.4111H34.0878L37.1447 24.642L40.2682 18.4111H43.1249V29.4359H40.4024V23.6225L37.9973 29.4359H36.2601L33.9551 23.6893V29.4359H31.2156V18.4111H31.2148Z" fill="white"/>
<path d="M47.6016 18.4102H55.5866V21.1326H50.3411V22.7193H54.7013V25.0747H50.3411V29.435H47.6016V18.4102Z" fill="white"/>
<path d="M57.8065 18.2773C58.5249 18.2773 59.2263 18.6614 59.2263 19.3131C59.2263 19.9648 58.5249 20.3652 57.8065 20.3652C57.0881 20.3652 56.3867 19.9477 56.3867 19.3131C56.3867 18.6784 57.0881 18.2773 57.8065 18.2773ZM56.4364 20.9672H59.1759V29.4363H56.4364V20.9672Z" fill="white"/>
<path d="M60.3633 20.9671H63.1028V22.9215C63.4705 21.518 64.9067 20.8166 66.2101 20.8003C68.4654 20.7669 70.2026 22.4203 70.2026 25.2436V29.4363H67.463V25.2266C67.463 23.8401 66.5444 23.0046 65.3418 23.0216C64.1556 23.055 63.2036 23.8571 63.2036 25.2266V29.4363H60.364V20.9671H60.3633Z" fill="white"/>
<path d="M70.9883 25.2426C70.9883 22.4193 72.7091 20.766 74.9637 20.7993C76.2835 20.8164 77.7033 21.5177 78.0873 22.9205V20.9662H80.8268V29.4353H78.1044V27.4639C77.7366 28.7502 76.4169 29.5851 75.1142 29.6021C72.7091 29.6355 70.9883 27.6811 70.9883 25.2426ZM75.849 27.3475C77.0182 27.3141 77.9702 26.4786 77.9702 25.2263C77.9702 23.8732 77.0345 23.0547 75.849 23.0213C74.6464 23.0043 73.7108 23.8398 73.7108 25.2263C73.7108 26.5126 74.6628 27.3645 75.849 27.3475Z" fill="white"/>
<path d="M81.9453 20.9671H84.6848V22.9215C85.0526 21.518 86.4887 20.8166 87.7921 20.8003C90.0475 20.7669 91.7846 22.4203 91.7846 25.2436V29.4363H89.0451V25.2266C89.0451 23.8401 88.1264 23.0046 86.9239 23.0216C85.7376 23.055 84.7856 23.8571 84.7856 25.2266V29.4363H81.946V20.9671H81.9453Z" fill="white"/>
<path d="M92.5707 25.2431C92.5373 22.5206 94.6919 20.7998 97.3817 20.7998C99.4362 20.7998 101.157 21.8022 101.858 23.3888L99.3027 24.3074C98.9854 23.5557 98.2506 23.0211 97.3647 23.0211C96.1621 23.0211 95.2932 23.9901 95.2932 25.2261C95.2932 26.462 96.1621 27.3643 97.3647 27.3643C98.2833 27.3643 99.0017 26.8468 99.319 26.0779L101.858 27.0136C101.157 28.6002 99.5029 29.6026 97.3817 29.6026C94.7927 29.6026 92.5877 27.8988 92.5707 25.2431Z" fill="white"/>
<path d="M104.08 18.2773C104.798 18.2773 105.5 18.6614 105.5 19.3131C105.5 19.9648 104.798 20.3652 104.08 20.3652C103.362 20.3652 102.66 19.9477 102.66 19.3131C102.66 18.6784 103.362 18.2773 104.08 18.2773ZM102.711 20.9672H105.45V29.4363H102.711V20.9672Z" fill="white"/>
<path d="M106.301 25.2426C106.301 22.4193 108.022 20.766 110.276 20.7993C111.596 20.8164 113.016 21.5177 113.4 22.9205V20.9662H116.139V29.4353H113.417V27.4639C113.049 28.7502 111.729 29.5851 110.427 29.6021C108.022 29.6355 106.301 27.6811 106.301 25.2426ZM111.161 27.3475C112.331 27.3141 113.283 26.4786 113.283 25.2263C113.283 23.8732 112.347 23.0547 111.161 23.0213C109.959 23.0043 109.023 23.8398 109.023 25.2263C109.023 26.5126 109.975 27.3645 111.161 27.3475Z" fill="white"/>
<path d="M117.258 18.4102H119.997V29.435H117.258V18.4102Z" fill="white"/>
<path d="M0.635364 30.7236L0 31.6188C0 31.6188 1.84078 30.6568 1.96856 30.5937C2.73313 30.2131 3.46362 29.8461 4.38508 29.5629C8.33214 28.3511 12.6725 28.3518 16.6252 29.4606C16.6359 22.4731 17.4977 15.4095 19.3378 8.67466C20.1094 5.85067 21.1899 3.14239 22.1341 0.380859L0.635364 30.7236Z" fill="#DA251D"/>
</svg>
